<mxfile host="65bd71144e">
    <diagram id="tjPNl0KOw06gqgNk41u9" name="Page-1">
        <mxGraphModel dx="3569" dy="2075" grid="1" gridSize="10" guides="1" tooltips="1" connect="1" arrows="1" fold="1" page="0" pageScale="1" pageWidth="1169" pageHeight="1654" math="0" shadow="0">
            <root>
                <mxCell id="0"/>
                <mxCell id="1" parent="0"/>
                <mxCell id="17" value="HOME" style="shape=ext;double=1;rounded=0;whiteSpace=wrap;html=1;strokeColor=default;" parent="1" vertex="1">
                    <mxGeometry x="500" y="-20" width="120" height="50" as="geometry"/>
                </mxCell>
                <mxCell id="31" value="" style="edgeStyle=none;html=1;endArrow=none;endFill=0;strokeColor=default;entryX=0;entryY=0;entryDx=55.00000000000001;entryDy=0;entryPerimeter=0;arcSize=50;" parent="1" source="21" target="85" edge="1">
                    <mxGeometry relative="1" as="geometry">
                        <mxPoint x="320" y="560" as="targetPoint"/>
                        <Array as="points">
                            <mxPoint x="560" y="440"/>
                            <mxPoint x="315" y="440"/>
                        </Array>
                    </mxGeometry>
                </mxCell>
                <mxCell id="43" value="" style="edgeStyle=none;html=1;strokeColor=default;endArrow=none;endFill=0;arcSize=50;" parent="1" source="21" edge="1" target="87">
                    <mxGeometry relative="1" as="geometry">
                        <mxPoint x="560" y="600" as="targetPoint"/>
                    </mxGeometry>
                </mxCell>
                <mxCell id="49" value="" style="edgeStyle=none;html=1;strokeColor=default;endArrow=none;endFill=0;arcSize=50;" parent="1" source="21" target="48" edge="1">
                    <mxGeometry relative="1" as="geometry">
                        <Array as="points">
                            <mxPoint x="560" y="440"/>
                            <mxPoint x="1070" y="440"/>
                        </Array>
                    </mxGeometry>
                </mxCell>
                <mxCell id="205" value="" style="edgeStyle=none;shape=connector;rounded=1;html=1;labelBackgroundColor=default;strokeColor=default;fontFamily=Helvetica;fontSize=11;fontColor=default;startArrow=none;startFill=0;endArrow=none;endFill=0;arcSize=50;" edge="1" parent="1" source="21" target="204">
                    <mxGeometry relative="1" as="geometry"/>
                </mxCell>
                <mxCell id="21" value="Login" style="whiteSpace=wrap;html=1;fillColor=rgb(24, 20, 29);rounded=1;strokeColor=default;" parent="1" vertex="1">
                    <mxGeometry x="500" y="190" width="120" height="60" as="geometry"/>
                </mxCell>
                <mxCell id="187" value="" style="edgeStyle=none;shape=connector;rounded=1;html=1;labelBackgroundColor=default;strokeColor=default;fontFamily=Helvetica;fontSize=11;fontColor=default;startArrow=none;startFill=0;endArrow=none;endFill=0;arcSize=50;" edge="1" parent="1" source="26" target="186">
                    <mxGeometry relative="1" as="geometry"/>
                </mxCell>
                <mxCell id="219" value="" style="edgeStyle=none;shape=connector;rounded=1;html=1;labelBackgroundColor=default;strokeColor=default;fontFamily=Helvetica;fontSize=11;fontColor=default;endArrow=none;" edge="1" parent="1" source="26" target="218">
                    <mxGeometry relative="1" as="geometry"/>
                </mxCell>
                <mxCell id="26" value="Register" style="whiteSpace=wrap;html=1;fillColor=rgb(24, 20, 29);rounded=0;strokeColor=default;" parent="1" vertex="1">
                    <mxGeometry x="260" y="90" width="120" height="60" as="geometry"/>
                </mxCell>
                <mxCell id="106" value="" style="edgeStyle=none;html=1;endArrow=none;endFill=0;movable=1;resizable=1;rotatable=1;deletable=1;editable=1;connectable=1;arcSize=50;" edge="1" parent="1" source="38" target="105">
                    <mxGeometry relative="1" as="geometry">
                        <Array as="points">
                            <mxPoint x="560" y="1390"/>
                            <mxPoint x="80" y="1390"/>
                        </Array>
                    </mxGeometry>
                </mxCell>
                <mxCell id="108" value="" style="edgeStyle=none;html=1;endArrow=none;endFill=0;movable=1;resizable=1;rotatable=1;deletable=1;editable=1;connectable=1;arcSize=50;" edge="1" parent="1" source="38" target="107">
                    <mxGeometry relative="1" as="geometry">
                        <Array as="points">
                            <mxPoint x="560" y="1390"/>
                            <mxPoint x="800" y="1390"/>
                        </Array>
                    </mxGeometry>
                </mxCell>
                <mxCell id="110" value="" style="edgeStyle=none;html=1;endArrow=none;endFill=0;movable=1;resizable=1;rotatable=1;deletable=1;editable=1;connectable=1;arcSize=50;" edge="1" parent="1" source="38" target="109">
                    <mxGeometry relative="1" as="geometry">
                        <Array as="points">
                            <mxPoint x="560" y="1390"/>
                            <mxPoint x="320" y="1390"/>
                        </Array>
                    </mxGeometry>
                </mxCell>
                <mxCell id="112" value="" style="edgeStyle=none;html=1;endArrow=none;endFill=0;movable=1;resizable=1;rotatable=1;deletable=1;editable=1;connectable=1;arcSize=50;" edge="1" parent="1" source="38" target="111">
                    <mxGeometry relative="1" as="geometry">
                        <Array as="points">
                            <mxPoint x="560" y="1390"/>
                        </Array>
                    </mxGeometry>
                </mxCell>
                <mxCell id="116" value="" style="edgeStyle=none;html=1;startArrow=none;startFill=0;endArrow=none;endFill=0;movable=1;resizable=1;rotatable=1;deletable=1;editable=1;connectable=1;arcSize=50;" edge="1" parent="1" source="38" target="115">
                    <mxGeometry relative="1" as="geometry">
                        <Array as="points">
                            <mxPoint x="560" y="1390"/>
                            <mxPoint x="1040" y="1390"/>
                        </Array>
                    </mxGeometry>
                </mxCell>
                <mxCell id="38" value="Footer" style="whiteSpace=wrap;html=1;fillColor=rgb(24, 20, 29);rounded=1;movable=1;resizable=1;rotatable=1;deletable=1;editable=1;connectable=1;dashed=1;dashPattern=1 4;" parent="1" vertex="1">
                    <mxGeometry x="500" y="1250" width="120" height="60" as="geometry"/>
                </mxCell>
                <mxCell id="57" value="" style="edgeStyle=none;shape=connector;rounded=1;html=1;labelBackgroundColor=default;strokeColor=default;fontFamily=Helvetica;fontSize=11;fontColor=default;endArrow=none;endFill=0;entryX=0;entryY=0.5;entryDx=0;entryDy=0;arcSize=50;" parent="1" source="85" target="56" edge="1">
                    <mxGeometry relative="1" as="geometry">
                        <Array as="points">
                            <mxPoint x="320" y="771"/>
                            <mxPoint x="320" y="811"/>
                        </Array>
                    </mxGeometry>
                </mxCell>
                <mxCell id="95" value="" style="edgeStyle=none;shape=connector;rounded=1;html=1;labelBackgroundColor=default;strokeColor=default;fontFamily=Helvetica;fontSize=11;fontColor=default;endArrow=none;endFill=0;entryX=0;entryY=0;entryDx=0;entryDy=25;entryPerimeter=0;arcSize=50;" parent="1" source="48" edge="1" target="96">
                    <mxGeometry relative="1" as="geometry">
                        <mxPoint x="1070" y="750" as="targetPoint"/>
                        <Array as="points">
                            <mxPoint x="1070" y="1006"/>
                        </Array>
                    </mxGeometry>
                </mxCell>
                <mxCell id="48" value="Commons" style="whiteSpace=wrap;html=1;rounded=0;strokeColor=default;" parent="1" vertex="1">
                    <mxGeometry x="1010" y="610" width="120" height="60" as="geometry"/>
                </mxCell>
                <mxCell id="51" style="edgeStyle=none;html=1;entryX=0.5;entryY=1;entryDx=0;entryDy=0;strokeColor=default;endArrow=none;endFill=0;arcSize=50;" parent="1" source="50" target="21" edge="1">
                    <mxGeometry relative="1" as="geometry">
                        <Array as="points">
                            <mxPoint x="1520" y="440"/>
                            <mxPoint x="1280" y="440"/>
                            <mxPoint x="1040" y="440"/>
                            <mxPoint x="560" y="440"/>
                        </Array>
                    </mxGeometry>
                </mxCell>
                <mxCell id="64" value="" style="edgeStyle=none;shape=connector;rounded=1;html=1;labelBackgroundColor=default;strokeColor=default;fontFamily=Helvetica;fontSize=11;fontColor=default;endArrow=none;endFill=0;arcSize=50;" parent="1" source="50" target="63" edge="1">
                    <mxGeometry relative="1" as="geometry">
                        <Array as="points">
                            <mxPoint x="1640" y="540"/>
                            <mxPoint x="1450" y="540"/>
                        </Array>
                    </mxGeometry>
                </mxCell>
                <mxCell id="80" value="" style="edgeStyle=none;shape=connector;rounded=1;html=1;labelBackgroundColor=default;strokeColor=default;fontFamily=Helvetica;fontSize=11;fontColor=default;endArrow=none;endFill=0;arcSize=50;" parent="1" source="50" target="79" edge="1">
                    <mxGeometry relative="1" as="geometry">
                        <Array as="points">
                            <mxPoint x="1639" y="540"/>
                            <mxPoint x="2230" y="540"/>
                        </Array>
                    </mxGeometry>
                </mxCell>
                <mxCell id="50" value="Profile" style="whiteSpace=wrap;html=1;rounded=1;strokeColor=default;" parent="1" vertex="1">
                    <mxGeometry x="1579" y="410" width="120" height="60" as="geometry"/>
                </mxCell>
                <mxCell id="52" value="Search bar" style="whiteSpace=wrap;html=1;rounded=1;strokeColor=default;glass=0;dashed=1;dashPattern=1 4;" parent="1" vertex="1">
                    <mxGeometry x="930" y="300" width="120" height="60" as="geometry"/>
                </mxCell>
                <mxCell id="54" value="Language switch" style="whiteSpace=wrap;html=1;rounded=1;strokeColor=default;dashed=1;dashPattern=1 4;" parent="1" vertex="1">
                    <mxGeometry x="1150" y="300" width="120" height="60" as="geometry"/>
                </mxCell>
                <mxCell id="56" value="Pay" style="whiteSpace=wrap;html=1;strokeColor=default;rounded=1;glass=0;" parent="1" vertex="1">
                    <mxGeometry x="360" y="781" width="120" height="60" as="geometry"/>
                </mxCell>
                <mxCell id="59" value="" style="endArrow=none;html=1;rounded=1;labelBackgroundColor=default;strokeColor=default;fontFamily=Helvetica;fontSize=11;fontColor=default;shape=connector;entryX=0.5;entryY=1;entryDx=0;entryDy=0;exitX=0.5;exitY=1;exitDx=0;exitDy=0;dashed=1;dashPattern=1 4;arcSize=50;" parent="1" source="21" target="52" edge="1">
                    <mxGeometry width="50" height="50" relative="1" as="geometry">
                        <mxPoint x="480" y="370" as="sourcePoint"/>
                        <mxPoint x="840" y="510" as="targetPoint"/>
                        <Array as="points">
                            <mxPoint x="560" y="440"/>
                            <mxPoint x="990" y="440"/>
                        </Array>
                    </mxGeometry>
                </mxCell>
                <mxCell id="63" value="Switch profile" style="whiteSpace=wrap;html=1;strokeColor=default;rounded=1;" parent="1" vertex="1">
                    <mxGeometry x="1389" y="610" width="120" height="60" as="geometry"/>
                </mxCell>
                <mxCell id="78" value="" style="edgeStyle=none;shape=connector;rounded=1;html=1;labelBackgroundColor=default;strokeColor=default;fontFamily=Helvetica;fontSize=11;fontColor=default;endArrow=none;endFill=0;exitX=0.5;exitY=1;exitDx=0;exitDy=0;arcSize=50;" parent="1" source="50" target="77" edge="1">
                    <mxGeometry relative="1" as="geometry">
                        <Array as="points">
                            <mxPoint x="1640" y="540"/>
                            <mxPoint x="2030" y="540"/>
                        </Array>
                    </mxGeometry>
                </mxCell>
                <mxCell id="67" value="Messages" style="verticalLabelPosition=middle;verticalAlign=middle;html=1;shape=mxgraph.basic.layered_rect;dx=10;outlineConnect=0;whiteSpace=wrap;rounded=1;glass=0;sketch=0;strokeColor=default;fontFamily=Helvetica;fontSize=11;fontColor=default;labelPosition=center;align=center;" parent="1" vertex="1">
                    <mxGeometry x="1771" y="610" width="120" height="60" as="geometry"/>
                </mxCell>
                <mxCell id="68" value="" style="endArrow=none;html=1;rounded=1;labelBackgroundColor=default;strokeColor=default;fontFamily=Helvetica;fontSize=11;fontColor=default;shape=connector;entryX=0.5;entryY=1;entryDx=0;entryDy=0;arcSize=50;" parent="1" source="67" target="50" edge="1">
                    <mxGeometry width="50" height="50" relative="1" as="geometry">
                        <mxPoint x="929" y="540" as="sourcePoint"/>
                        <mxPoint x="979" y="490" as="targetPoint"/>
                        <Array as="points">
                            <mxPoint x="1831" y="540"/>
                            <mxPoint x="1639" y="540"/>
                        </Array>
                    </mxGeometry>
                </mxCell>
                <mxCell id="73" value="Edit profle" style="verticalLabelPosition=middle;verticalAlign=middle;html=1;shape=mxgraph.basic.layered_rect;dx=10;outlineConnect=0;whiteSpace=wrap;rounded=1;glass=0;sketch=0;strokeColor=default;fontFamily=Helvetica;fontSize=11;fontColor=default;labelPosition=center;align=center;" parent="1" vertex="1">
                    <mxGeometry x="1579" y="610" width="120" height="60" as="geometry"/>
                </mxCell>
                <mxCell id="77" value="Friend requests" style="whiteSpace=wrap;html=1;fontSize=11;strokeColor=default;fontColor=default;rounded=1;glass=0;sketch=0;" parent="1" vertex="1">
                    <mxGeometry x="1971" y="610" width="120" height="60" as="geometry"/>
                </mxCell>
                <mxCell id="79" value="Settings" style="whiteSpace=wrap;html=1;rounded=0;strokeColor=default;" parent="1" vertex="1">
                    <mxGeometry x="2169" y="610" width="120" height="60" as="geometry"/>
                </mxCell>
                <mxCell id="81" value="" style="endArrow=none;html=1;rounded=1;labelBackgroundColor=default;strokeColor=default;fontFamily=Helvetica;fontSize=11;fontColor=default;shape=connector;exitX=0.5;exitY=1;exitDx=0;exitDy=0;dashed=1;dashPattern=1 4;entryX=0.5;entryY=0;entryDx=0;entryDy=0;arcSize=50;" parent="1" source="17" target="50" edge="1">
                    <mxGeometry width="50" height="50" relative="1" as="geometry">
                        <mxPoint x="1340" as="sourcePoint"/>
                        <mxPoint x="1870" y="340" as="targetPoint"/>
                        <Array as="points">
                            <mxPoint x="560" y="120"/>
                            <mxPoint x="1639" y="120"/>
                        </Array>
                    </mxGeometry>
                </mxCell>
                <mxCell id="82" value="" style="endArrow=none;html=1;rounded=1;labelBackgroundColor=default;strokeColor=default;fontFamily=Helvetica;fontSize=11;fontColor=default;shape=connector;entryX=0.5;entryY=1;entryDx=0;entryDy=0;arcSize=50;" parent="1" source="73" target="50" edge="1">
                    <mxGeometry width="50" height="50" relative="1" as="geometry">
                        <mxPoint x="1649" y="560" as="sourcePoint"/>
                        <mxPoint x="1699" y="510" as="targetPoint"/>
                    </mxGeometry>
                </mxCell>
                <mxCell id="141" value="" style="edgeStyle=none;shape=connector;rounded=1;html=1;labelBackgroundColor=default;strokeColor=default;fontFamily=Helvetica;fontSize=11;fontColor=default;startArrow=none;startFill=0;endArrow=none;endFill=0;dashed=1;dashPattern=1 4;entryX=0;entryY=0.5;entryDx=0;entryDy=0;arcSize=50;" edge="1" parent="1" source="83" target="140">
                    <mxGeometry relative="1" as="geometry">
                        <Array as="points">
                            <mxPoint x="70" y="801"/>
                        </Array>
                    </mxGeometry>
                </mxCell>
                <mxCell id="147" value="" style="edgeStyle=none;shape=connector;rounded=1;html=1;labelBackgroundColor=default;strokeColor=default;fontFamily=Helvetica;fontSize=11;fontColor=default;startArrow=none;startFill=0;endArrow=none;endFill=0;entryX=0;entryY=0.5;entryDx=0;entryDy=0;arcSize=50;" edge="1" parent="1" source="83" target="146">
                    <mxGeometry relative="1" as="geometry">
                        <Array as="points">
                            <mxPoint x="70" y="911"/>
                        </Array>
                    </mxGeometry>
                </mxCell>
                <mxCell id="149" value="" style="edgeStyle=none;shape=connector;rounded=1;html=1;labelBackgroundColor=default;strokeColor=default;fontFamily=Helvetica;fontSize=11;fontColor=default;startArrow=none;startFill=0;endArrow=none;endFill=0;entryX=0;entryY=0.5;entryDx=0;entryDy=0;arcSize=50;" edge="1" parent="1" target="148">
                    <mxGeometry relative="1" as="geometry">
                        <mxPoint x="70" y="671" as="sourcePoint"/>
                        <Array as="points">
                            <mxPoint x="70" y="1011"/>
                        </Array>
                    </mxGeometry>
                </mxCell>
                <mxCell id="83" value="Dashboard" style="rounded=0;whiteSpace=wrap;html=1;glass=0;sketch=0;strokeColor=default;fontFamily=Helvetica;fontSize=11;fontColor=default;" parent="1" vertex="1">
                    <mxGeometry x="10" y="610" width="120" height="60" as="geometry"/>
                </mxCell>
                <mxCell id="84" value="" style="endArrow=none;html=1;rounded=1;labelBackgroundColor=default;strokeColor=default;fontFamily=Helvetica;fontSize=11;fontColor=default;shape=connector;entryX=0.5;entryY=1;entryDx=0;entryDy=0;exitX=0.5;exitY=0;exitDx=0;exitDy=0;arcSize=50;" parent="1" source="83" target="21" edge="1">
                    <mxGeometry width="50" height="50" relative="1" as="geometry">
                        <mxPoint x="600" y="540" as="sourcePoint"/>
                        <mxPoint x="650" y="490" as="targetPoint"/>
                        <Array as="points">
                            <mxPoint x="70" y="440"/>
                            <mxPoint x="560" y="440"/>
                        </Array>
                    </mxGeometry>
                </mxCell>
                <mxCell id="139" value="" style="edgeStyle=none;shape=connector;rounded=1;html=1;labelBackgroundColor=default;strokeColor=default;fontFamily=Helvetica;fontSize=11;fontColor=default;startArrow=none;startFill=0;endArrow=none;endFill=0;entryX=0;entryY=0.5;entryDx=0;entryDy=0;arcSize=50;" edge="1" parent="1" source="85" target="138">
                    <mxGeometry relative="1" as="geometry">
                        <Array as="points">
                            <mxPoint x="320" y="771"/>
                            <mxPoint x="320" y="911"/>
                        </Array>
                    </mxGeometry>
                </mxCell>
                <mxCell id="144" value="" style="edgeStyle=none;shape=connector;rounded=1;html=1;labelBackgroundColor=default;strokeColor=default;fontFamily=Helvetica;fontSize=11;fontColor=default;startArrow=none;startFill=0;endArrow=none;endFill=0;entryX=0;entryY=0.5;entryDx=0;entryDy=0;arcSize=50;" edge="1" parent="1" source="85" target="143">
                    <mxGeometry relative="1" as="geometry">
                        <mxPoint x="380" y="1081" as="targetPoint"/>
                        <Array as="points">
                            <mxPoint x="320" y="771"/>
                            <mxPoint x="320" y="1011"/>
                        </Array>
                    </mxGeometry>
                </mxCell>
                <mxCell id="85" value="Payments" style="verticalLabelPosition=middle;verticalAlign=middle;html=1;shape=mxgraph.basic.layered_rect;dx=10;outlineConnect=0;whiteSpace=wrap;rounded=1;glass=0;sketch=0;strokeColor=default;fontFamily=Helvetica;fontSize=11;fontColor=default;labelPosition=center;align=center;" parent="1" vertex="1">
                    <mxGeometry x="260" y="610" width="120" height="60" as="geometry"/>
                </mxCell>
                <mxCell id="177" value="" style="edgeStyle=none;shape=connector;rounded=1;html=1;labelBackgroundColor=default;strokeColor=default;fontFamily=Helvetica;fontSize=11;fontColor=default;startArrow=none;startFill=0;endArrow=none;endFill=0;arcSize=50;" edge="1" parent="1" source="87" target="176">
                    <mxGeometry relative="1" as="geometry">
                        <Array as="points">
                            <mxPoint x="560" y="911"/>
                        </Array>
                    </mxGeometry>
                </mxCell>
                <mxCell id="179" value="" style="edgeStyle=none;shape=connector;rounded=1;html=1;labelBackgroundColor=default;strokeColor=default;fontFamily=Helvetica;fontSize=11;fontColor=default;startArrow=none;startFill=0;endArrow=none;endFill=0;arcSize=50;" edge="1" parent="1" source="87" target="178">
                    <mxGeometry relative="1" as="geometry">
                        <Array as="points">
                            <mxPoint x="560" y="1011"/>
                        </Array>
                    </mxGeometry>
                </mxCell>
                <mxCell id="87" value="Requests" style="verticalLabelPosition=middle;verticalAlign=middle;html=1;shape=mxgraph.basic.layered_rect;dx=10;outlineConnect=0;whiteSpace=wrap;rounded=1;glass=0;sketch=0;strokeColor=default;fontFamily=Helvetica;fontSize=11;fontColor=default;labelPosition=center;align=center;" parent="1" vertex="1">
                    <mxGeometry x="500" y="610" width="120" height="60" as="geometry"/>
                </mxCell>
                <mxCell id="89" value="New Request" style="whiteSpace=wrap;html=1;fontSize=11;strokeColor=default;fontColor=default;rounded=1;glass=0;sketch=0;fontFamily=Helvetica;" parent="1" vertex="1">
                    <mxGeometry x="600" y="771" width="120" height="60" as="geometry"/>
                </mxCell>
                <mxCell id="90" value="" style="endArrow=none;html=1;rounded=1;labelBackgroundColor=default;strokeColor=default;fontFamily=Helvetica;fontSize=11;fontColor=default;shape=connector;exitX=0;exitY=0.5;exitDx=0;exitDy=0;arcSize=50;" parent="1" source="89" target="87" edge="1">
                    <mxGeometry width="50" height="50" relative="1" as="geometry">
                        <mxPoint x="610" y="621" as="sourcePoint"/>
                        <mxPoint x="660" y="571" as="targetPoint"/>
                        <Array as="points">
                            <mxPoint x="560" y="801"/>
                        </Array>
                    </mxGeometry>
                </mxCell>
                <mxCell id="96" value="Governance" style="verticalLabelPosition=middle;verticalAlign=middle;html=1;shape=mxgraph.basic.layered_rect;dx=10;outlineConnect=0;whiteSpace=wrap;rounded=1;glass=0;sketch=0;strokeColor=default;fontFamily=Helvetica;fontSize=11;fontColor=default;labelPosition=center;align=center;" parent="1" vertex="1">
                    <mxGeometry x="1120" y="981" width="120" height="60" as="geometry"/>
                </mxCell>
                <mxCell id="100" value="Local Banks" style="verticalLabelPosition=middle;verticalAlign=middle;html=1;shape=mxgraph.basic.layered_rect;dx=10;outlineConnect=0;whiteSpace=wrap;rounded=1;glass=0;sketch=0;strokeColor=default;fontFamily=Helvetica;fontSize=11;fontColor=default;labelPosition=center;align=center;" parent="1" vertex="1">
                    <mxGeometry x="1120" y="881" width="120" height="60" as="geometry"/>
                </mxCell>
                <mxCell id="103" value="Vote" style="whiteSpace=wrap;html=1;fontSize=11;strokeColor=default;fontColor=default;rounded=1;glass=0;sketch=0;" parent="1" vertex="1">
                    <mxGeometry x="1120" y="771" width="120" height="60" as="geometry"/>
                </mxCell>
                <mxCell id="127" value="" style="edgeStyle=none;shape=connector;rounded=1;html=1;labelBackgroundColor=default;strokeColor=default;fontFamily=Helvetica;fontSize=11;fontColor=default;startArrow=none;startFill=0;endArrow=none;endFill=0;movable=1;resizable=1;rotatable=1;deletable=1;editable=1;connectable=1;arcSize=50;" edge="1" parent="1" source="216">
                    <mxGeometry relative="1" as="geometry">
                        <mxPoint x="80" y="1550" as="targetPoint"/>
                        <Array as="points">
                            <mxPoint x="-300" y="1630"/>
                            <mxPoint x="-110" y="1630"/>
                            <mxPoint x="80" y="1630"/>
                        </Array>
                    </mxGeometry>
                </mxCell>
                <mxCell id="129" value="" style="edgeStyle=none;shape=connector;rounded=1;html=1;labelBackgroundColor=default;strokeColor=default;fontFamily=Helvetica;fontSize=11;fontColor=default;startArrow=none;startFill=0;endArrow=none;endFill=0;movable=1;resizable=1;rotatable=1;deletable=1;editable=1;connectable=1;arcSize=50;" edge="1" parent="1" source="105" target="128">
                    <mxGeometry relative="1" as="geometry"/>
                </mxCell>
                <mxCell id="131" value="" style="edgeStyle=none;shape=connector;rounded=1;html=1;labelBackgroundColor=default;strokeColor=default;fontFamily=Helvetica;fontSize=11;fontColor=default;startArrow=none;startFill=0;endArrow=none;endFill=0;movable=1;resizable=1;rotatable=1;deletable=1;editable=1;connectable=1;arcSize=50;" edge="1" parent="1" source="105" target="130">
                    <mxGeometry relative="1" as="geometry">
                        <Array as="points">
                            <mxPoint x="80" y="1630"/>
                            <mxPoint x="270" y="1630"/>
                        </Array>
                    </mxGeometry>
                </mxCell>
                <mxCell id="133" value="" style="edgeStyle=none;shape=connector;rounded=1;html=1;labelBackgroundColor=default;strokeColor=default;fontFamily=Helvetica;fontSize=11;fontColor=default;startArrow=none;startFill=0;endArrow=none;endFill=0;movable=1;resizable=1;rotatable=1;deletable=1;editable=1;connectable=1;arcSize=50;" edge="1" parent="1" source="105" target="132">
                    <mxGeometry relative="1" as="geometry">
                        <Array as="points">
                            <mxPoint x="80" y="1630"/>
                            <mxPoint x="460" y="1630"/>
                        </Array>
                    </mxGeometry>
                </mxCell>
                <mxCell id="105" value="About" style="whiteSpace=wrap;html=1;fillColor=rgb(24, 20, 29);rounded=0;movable=1;resizable=1;rotatable=1;deletable=1;editable=1;connectable=1;" vertex="1" parent="1">
                    <mxGeometry x="20" y="1490" width="120" height="60" as="geometry"/>
                </mxCell>
                <mxCell id="107" value="Support" style="rounded=0;whiteSpace=wrap;html=1;fillColor=rgb(24, 20, 29);movable=1;resizable=1;rotatable=1;deletable=1;editable=1;connectable=1;" vertex="1" parent="1">
                    <mxGeometry x="740" y="1490" width="120" height="60" as="geometry"/>
                </mxCell>
                <mxCell id="109" value="Projects" style="verticalLabelPosition=middle;verticalAlign=middle;html=1;shape=mxgraph.basic.layered_rect;dx=10;outlineConnect=0;whiteSpace=wrap;rounded=1;glass=0;sketch=0;strokeColor=default;fontFamily=Helvetica;fontSize=11;fontColor=default;labelPosition=center;align=center;movable=1;resizable=1;rotatable=1;deletable=1;editable=1;connectable=1;" vertex="1" parent="1">
                    <mxGeometry x="260" y="1490" width="120" height="60" as="geometry"/>
                </mxCell>
                <mxCell id="111" value="Newsletters" style="verticalLabelPosition=middle;verticalAlign=middle;html=1;shape=mxgraph.basic.layered_rect;dx=10;outlineConnect=0;whiteSpace=wrap;rounded=1;glass=0;sketch=0;strokeColor=default;fontFamily=Helvetica;fontSize=11;fontColor=default;labelPosition=center;align=center;movable=1;resizable=1;rotatable=1;deletable=1;editable=1;connectable=1;" vertex="1" parent="1">
                    <mxGeometry x="500" y="1490" width="120" height="60" as="geometry"/>
                </mxCell>
                <mxCell id="113" value="" style="endArrow=none;html=1;entryX=0.5;entryY=1;entryDx=0;entryDy=0;exitX=0.5;exitY=0;exitDx=0;exitDy=0;arcSize=50;" edge="1" parent="1" source="21" target="17">
                    <mxGeometry width="50" height="50" relative="1" as="geometry">
                        <mxPoint x="560" y="150" as="sourcePoint"/>
                        <mxPoint x="430" y="230" as="targetPoint"/>
                    </mxGeometry>
                </mxCell>
                <mxCell id="114" value="" style="endArrow=none;html=1;entryX=0.5;entryY=1;entryDx=0;entryDy=0;exitX=1;exitY=0.5;exitDx=0;exitDy=0;arcSize=50;" edge="1" parent="1" source="26" target="17">
                    <mxGeometry width="50" height="50" relative="1" as="geometry">
                        <mxPoint x="350" y="280" as="sourcePoint"/>
                        <mxPoint x="400" y="230" as="targetPoint"/>
                        <Array as="points">
                            <mxPoint x="560" y="120"/>
                        </Array>
                    </mxGeometry>
                </mxCell>
                <mxCell id="115" value="Contact us" style="whiteSpace=wrap;html=1;fillColor=rgb(24, 20, 29);rounded=0;movable=1;resizable=1;rotatable=1;deletable=1;editable=1;connectable=1;" vertex="1" parent="1">
                    <mxGeometry x="980" y="1490" width="120" height="60" as="geometry"/>
                </mxCell>
                <mxCell id="117" value="Social Media" style="whiteSpace=wrap;html=1;fillColor=rgb(24, 20, 29);rounded=1;dashed=1;dashPattern=1 4;movable=1;resizable=1;rotatable=1;deletable=1;editable=1;connectable=1;" vertex="1" parent="1">
                    <mxGeometry x="740" y="1250" width="120" height="60" as="geometry"/>
                </mxCell>
                <mxCell id="122" value="" style="endArrow=none;html=1;entryX=0;entryY=0.5;entryDx=0;entryDy=0;exitX=1;exitY=0.5;exitDx=0;exitDy=0;dashed=1;dashPattern=1 4;movable=1;resizable=1;rotatable=1;deletable=1;editable=1;connectable=1;arcSize=50;" edge="1" parent="1" source="38" target="117">
                    <mxGeometry width="50" height="50" relative="1" as="geometry">
                        <mxPoint x="560" y="1410" as="sourcePoint"/>
                        <mxPoint x="610" y="1360" as="targetPoint"/>
                    </mxGeometry>
                </mxCell>
                <mxCell id="126" value="FAQ" style="verticalLabelPosition=middle;verticalAlign=middle;html=1;shape=mxgraph.basic.layered_rect;dx=10;outlineConnect=0;whiteSpace=wrap;rounded=1;glass=0;sketch=0;strokeColor=default;fontFamily=Helvetica;fontSize=11;fontColor=default;labelPosition=center;align=center;movable=1;resizable=1;rotatable=1;deletable=1;editable=1;connectable=1;" vertex="1" parent="1">
                    <mxGeometry x="-170" y="1720" width="120" height="60" as="geometry"/>
                </mxCell>
                <mxCell id="128" value="History" style="whiteSpace=wrap;html=1;fillColor=rgb(24, 20, 29);rounded=0;movable=1;resizable=1;rotatable=1;deletable=1;editable=1;connectable=1;" vertex="1" parent="1">
                    <mxGeometry x="20" y="1720" width="120" height="60" as="geometry"/>
                </mxCell>
                <mxCell id="130" value="Economics" style="whiteSpace=wrap;html=1;fillColor=rgb(24, 20, 29);rounded=0;movable=1;resizable=1;rotatable=1;deletable=1;editable=1;connectable=1;" vertex="1" parent="1">
                    <mxGeometry x="210" y="1720" width="120" height="60" as="geometry"/>
                </mxCell>
                <mxCell id="132" value="Commons" style="whiteSpace=wrap;html=1;fillColor=rgb(24, 20, 29);rounded=0;movable=1;resizable=1;rotatable=1;deletable=1;editable=1;connectable=1;" vertex="1" parent="1">
                    <mxGeometry x="400" y="1720" width="120" height="60" as="geometry"/>
                </mxCell>
                <mxCell id="137" value="" style="endArrow=none;html=1;rounded=1;labelBackgroundColor=default;strokeColor=default;fontFamily=Helvetica;fontSize=11;fontColor=default;shape=connector;entryX=0.5;entryY=1;entryDx=0;entryDy=0;exitX=0.5;exitY=1;exitDx=0;exitDy=0;dashed=1;dashPattern=1 4;arcSize=50;" edge="1" parent="1" source="21" target="54">
                    <mxGeometry width="50" height="50" relative="1" as="geometry">
                        <mxPoint x="600" y="390" as="sourcePoint"/>
                        <mxPoint x="940" y="350" as="targetPoint"/>
                        <Array as="points">
                            <mxPoint x="560" y="440"/>
                            <mxPoint x="1210" y="440"/>
                        </Array>
                    </mxGeometry>
                </mxCell>
                <mxCell id="138" value="Request to pay" style="whiteSpace=wrap;html=1;fontSize=11;rounded=1;glass=0;sketch=0;" vertex="1" parent="1">
                    <mxGeometry x="360" y="881" width="120" height="60" as="geometry"/>
                </mxCell>
                <mxCell id="140" value="Update skills" style="rounded=1;whiteSpace=wrap;html=1;glass=0;sketch=0;strokeColor=default;fontFamily=Helvetica;fontSize=11;fontColor=default;dashed=1;dashPattern=1 4;" vertex="1" parent="1">
                    <mxGeometry x="110" y="771" width="120" height="60" as="geometry"/>
                </mxCell>
                <mxCell id="143" value="Transaction&amp;nbsp; statement" style="rounded=0;whiteSpace=wrap;html=1;glass=0;sketch=0;strokeColor=default;fontFamily=Helvetica;fontSize=11;fontColor=default;" vertex="1" parent="1">
                    <mxGeometry x="360" y="981" width="120" height="60" as="geometry"/>
                </mxCell>
                <mxCell id="146" value="View Newsletter" style="rounded=0;whiteSpace=wrap;html=1;glass=0;sketch=0;strokeColor=default;fontFamily=Helvetica;fontSize=11;fontColor=default;" vertex="1" parent="1">
                    <mxGeometry x="110" y="881" width="120" height="60" as="geometry"/>
                </mxCell>
                <mxCell id="148" value="View Event" style="rounded=0;whiteSpace=wrap;html=1;glass=0;sketch=0;strokeColor=default;fontFamily=Helvetica;fontSize=11;fontColor=default;" vertex="1" parent="1">
                    <mxGeometry x="110" y="981" width="120" height="60" as="geometry"/>
                </mxCell>
                <mxCell id="174" value="" style="edgeStyle=none;shape=connector;rounded=1;html=1;labelBackgroundColor=default;strokeColor=default;fontFamily=Helvetica;fontSize=11;fontColor=default;startArrow=none;startFill=0;endArrow=none;endFill=0;arcSize=50;" edge="1" parent="1" target="195">
                    <mxGeometry relative="1" as="geometry">
                        <mxPoint x="70" y="671" as="sourcePoint"/>
                        <mxPoint x="1010" y="870" as="targetPoint"/>
                        <Array as="points">
                            <mxPoint x="70" y="1110"/>
                            <mxPoint x="1010" y="1110"/>
                            <mxPoint x="1010" y="910"/>
                        </Array>
                    </mxGeometry>
                </mxCell>
                <mxCell id="175" value="" style="endArrow=none;html=1;rounded=1;labelBackgroundColor=default;strokeColor=default;fontFamily=Helvetica;fontSize=11;fontColor=default;shape=connector;entryX=1;entryY=0.5;entryDx=0;entryDy=0;arcSize=50;" edge="1" parent="1" target="196">
                    <mxGeometry width="50" height="50" relative="1" as="geometry">
                        <mxPoint x="70" y="671" as="sourcePoint"/>
                        <mxPoint x="1010" y="950" as="targetPoint"/>
                        <Array as="points">
                            <mxPoint x="70" y="1111"/>
                            <mxPoint x="1010" y="1110"/>
                            <mxPoint x="1010" y="1011"/>
                        </Array>
                    </mxGeometry>
                </mxCell>
                <mxCell id="176" value="Edit Request" style="whiteSpace=wrap;html=1;fontSize=11;rounded=1;glass=0;sketch=0;" vertex="1" parent="1">
                    <mxGeometry x="600" y="881" width="120" height="60" as="geometry"/>
                </mxCell>
                <mxCell id="178" value="View Request" style="whiteSpace=wrap;html=1;fontSize=11;rounded=0;glass=0;sketch=0;" vertex="1" parent="1">
                    <mxGeometry x="600" y="981" width="120" height="60" as="geometry"/>
                </mxCell>
                <mxCell id="180" value="" style="endArrow=none;html=1;rounded=1;labelBackgroundColor=default;strokeColor=default;fontFamily=Helvetica;fontSize=11;fontColor=default;shape=connector;entryX=0.5;entryY=1;entryDx=0;entryDy=0;exitX=0;exitY=0;exitDx=0;exitDy=25;exitPerimeter=0;arcSize=50;" edge="1" parent="1" source="100" target="48">
                    <mxGeometry width="50" height="50" relative="1" as="geometry">
                        <mxPoint x="980" y="861" as="sourcePoint"/>
                        <mxPoint x="1030" y="811" as="targetPoint"/>
                        <Array as="points">
                            <mxPoint x="1070" y="906"/>
                        </Array>
                    </mxGeometry>
                </mxCell>
                <mxCell id="181" value="" style="endArrow=none;html=1;rounded=1;labelBackgroundColor=default;strokeColor=default;fontFamily=Helvetica;fontSize=11;fontColor=default;shape=connector;exitX=0;exitY=0.5;exitDx=0;exitDy=0;arcSize=50;" edge="1" parent="1" source="103">
                    <mxGeometry width="50" height="50" relative="1" as="geometry">
                        <mxPoint x="980" y="861" as="sourcePoint"/>
                        <mxPoint x="1070" y="671" as="targetPoint"/>
                        <Array as="points">
                            <mxPoint x="1070" y="801"/>
                        </Array>
                    </mxGeometry>
                </mxCell>
                <mxCell id="184" value="" style="endArrow=none;html=1;rounded=1;labelBackgroundColor=default;strokeColor=default;fontFamily=Helvetica;fontSize=11;fontColor=default;shape=connector;entryX=1;entryY=0.5;entryDx=0;entryDy=0;arcSize=50;" edge="1" parent="1" source="100" target="103">
                    <mxGeometry width="50" height="50" relative="1" as="geometry">
                        <mxPoint x="1280" y="930" as="sourcePoint"/>
                        <mxPoint x="1120" y="930" as="targetPoint"/>
                        <Array as="points">
                            <mxPoint x="1270" y="912"/>
                            <mxPoint x="1280" y="912"/>
                            <mxPoint x="1280" y="801"/>
                        </Array>
                    </mxGeometry>
                </mxCell>
                <mxCell id="185" value="" style="endArrow=none;html=1;rounded=1;labelBackgroundColor=default;strokeColor=default;fontFamily=Helvetica;fontSize=11;fontColor=default;shape=connector;entryX=1;entryY=0.5;entryDx=0;entryDy=0;arcSize=50;" edge="1" parent="1" source="96" target="103">
                    <mxGeometry width="50" height="50" relative="1" as="geometry">
                        <mxPoint x="1260" y="1000" as="sourcePoint"/>
                        <mxPoint x="1250" y="800" as="targetPoint"/>
                        <Array as="points">
                            <mxPoint x="1280" y="1010"/>
                            <mxPoint x="1280" y="800"/>
                        </Array>
                    </mxGeometry>
                </mxCell>
                <mxCell id="186" value="Rgister complete" style="whiteSpace=wrap;html=1;fillColor=rgb(24, 20, 29);rounded=0;" vertex="1" parent="1">
                    <mxGeometry x="10" y="90" width="120" height="60" as="geometry"/>
                </mxCell>
                <mxCell id="189" value="" style="endArrow=none;html=1;rounded=1;labelBackgroundColor=default;strokeColor=default;fontFamily=Helvetica;fontSize=11;fontColor=default;shape=connector;exitX=0.5;exitY=0;exitDx=0;exitDy=0;arcSize=50;" edge="1" parent="1" source="83" target="186">
                    <mxGeometry width="50" height="50" relative="1" as="geometry">
                        <mxPoint x="640" y="410" as="sourcePoint"/>
                        <mxPoint x="690" y="360" as="targetPoint"/>
                        <Array as="points">
                            <mxPoint x="70" y="440"/>
                            <mxPoint x="70" y="330"/>
                        </Array>
                    </mxGeometry>
                </mxCell>
                <mxCell id="190" value="" style="edgeStyle=none;shape=connector;rounded=1;html=1;labelBackgroundColor=default;strokeColor=default;fontFamily=Helvetica;fontSize=11;fontColor=default;startArrow=none;startFill=0;endArrow=none;endFill=0;arcSize=50;" edge="1" parent="1" source="192" target="195">
                    <mxGeometry relative="1" as="geometry">
                        <Array as="points">
                            <mxPoint x="810" y="911"/>
                        </Array>
                    </mxGeometry>
                </mxCell>
                <mxCell id="191" value="" style="edgeStyle=none;shape=connector;rounded=1;html=1;labelBackgroundColor=default;strokeColor=default;fontFamily=Helvetica;fontSize=11;fontColor=default;startArrow=none;startFill=0;endArrow=none;endFill=0;arcSize=50;" edge="1" parent="1" source="192" target="196">
                    <mxGeometry relative="1" as="geometry">
                        <Array as="points">
                            <mxPoint x="810" y="1011"/>
                        </Array>
                    </mxGeometry>
                </mxCell>
                <mxCell id="192" value="Timebankers" style="verticalLabelPosition=middle;verticalAlign=middle;html=1;shape=mxgraph.basic.layered_rect;dx=10;outlineConnect=0;whiteSpace=wrap;rounded=1;glass=0;sketch=0;strokeColor=default;fontFamily=Helvetica;fontSize=11;fontColor=default;labelPosition=center;align=center;" vertex="1" parent="1">
                    <mxGeometry x="750" y="610" width="120" height="60" as="geometry"/>
                </mxCell>
                <mxCell id="193" value="Search" style="whiteSpace=wrap;html=1;fontSize=11;strokeColor=default;fontColor=default;rounded=1;glass=0;sketch=0;fontFamily=Helvetica;dashed=1;dashPattern=1 4;" vertex="1" parent="1">
                    <mxGeometry x="850" y="771" width="120" height="60" as="geometry"/>
                </mxCell>
                <mxCell id="194" value="" style="endArrow=none;html=1;rounded=1;labelBackgroundColor=default;strokeColor=default;fontFamily=Helvetica;fontSize=11;fontColor=default;shape=connector;exitX=0;exitY=0.5;exitDx=0;exitDy=0;dashed=1;dashPattern=1 4;arcSize=50;" edge="1" parent="1" source="193" target="192">
                    <mxGeometry width="50" height="50" relative="1" as="geometry">
                        <mxPoint x="860" y="621" as="sourcePoint"/>
                        <mxPoint x="910" y="571" as="targetPoint"/>
                        <Array as="points">
                            <mxPoint x="810" y="801"/>
                        </Array>
                    </mxGeometry>
                </mxCell>
                <mxCell id="195" value="View user" style="whiteSpace=wrap;html=1;fontSize=11;rounded=0;glass=0;sketch=0;" vertex="1" parent="1">
                    <mxGeometry x="850" y="881" width="120" height="60" as="geometry"/>
                </mxCell>
                <mxCell id="196" value="View Org" style="whiteSpace=wrap;html=1;fontSize=11;rounded=0;glass=0;sketch=0;" vertex="1" parent="1">
                    <mxGeometry x="850" y="981" width="120" height="60" as="geometry"/>
                </mxCell>
                <mxCell id="197" value="" style="endArrow=none;html=1;rounded=1;labelBackgroundColor=default;strokeColor=default;fontFamily=Helvetica;fontSize=11;fontColor=default;shape=connector;exitX=0.5;exitY=1;exitDx=0;exitDy=0;startArrow=none;arcSize=50;" edge="1" parent="1" source="204">
                    <mxGeometry width="50" height="50" relative="1" as="geometry">
                        <mxPoint x="610" y="710" as="sourcePoint"/>
                        <mxPoint x="810" y="610" as="targetPoint"/>
                        <Array as="points">
                            <mxPoint x="560" y="440"/>
                            <mxPoint x="810" y="440"/>
                        </Array>
                    </mxGeometry>
                </mxCell>
                <mxCell id="198" value="" style="endArrow=none;html=1;rounded=1;labelBackgroundColor=default;strokeColor=default;fontFamily=Helvetica;fontSize=11;fontColor=default;shape=connector;entryX=1;entryY=0.5;entryDx=0;entryDy=0;arcSize=50;" edge="1" parent="1" target="178">
                    <mxGeometry width="50" height="50" relative="1" as="geometry">
                        <mxPoint x="70" y="670" as="sourcePoint"/>
                        <mxPoint x="540" y="880" as="targetPoint"/>
                        <Array as="points">
                            <mxPoint x="70" y="1110"/>
                            <mxPoint x="760" y="1110"/>
                            <mxPoint x="760" y="1011"/>
                        </Array>
                    </mxGeometry>
                </mxCell>
                <mxCell id="199" value="" style="endArrow=none;html=1;rounded=1;labelBackgroundColor=default;strokeColor=default;fontFamily=Helvetica;fontSize=11;fontColor=default;shape=connector;entryX=1;entryY=0.5;entryDx=0;entryDy=0;arcSize=50;" edge="1" parent="1" target="103">
                    <mxGeometry width="50" height="50" relative="1" as="geometry">
                        <mxPoint x="70" y="670" as="sourcePoint"/>
                        <mxPoint x="1250" y="800" as="targetPoint"/>
                        <Array as="points">
                            <mxPoint x="70" y="1110"/>
                            <mxPoint x="1280" y="1110"/>
                            <mxPoint x="1280" y="800"/>
                        </Array>
                    </mxGeometry>
                </mxCell>
                <mxCell id="200" value="" style="endArrow=none;html=1;rounded=1;labelBackgroundColor=default;strokeColor=default;fontFamily=Helvetica;fontSize=11;fontColor=default;shape=connector;exitX=0.5;exitY=0;exitDx=0;exitDy=0;arcSize=50;" edge="1" parent="1" source="83" target="87">
                    <mxGeometry width="50" height="50" relative="1" as="geometry">
                        <mxPoint x="680" y="490" as="sourcePoint"/>
                        <mxPoint x="730" y="440" as="targetPoint"/>
                        <Array as="points">
                            <mxPoint x="70" y="440"/>
                            <mxPoint x="320" y="440"/>
                            <mxPoint x="560" y="440"/>
                        </Array>
                    </mxGeometry>
                </mxCell>
                <mxCell id="201" value="" style="endArrow=none;html=1;rounded=1;labelBackgroundColor=default;strokeColor=default;fontFamily=Helvetica;fontSize=11;fontColor=default;shape=connector;arcSize=50;" edge="1" parent="1">
                    <mxGeometry width="50" height="50" relative="1" as="geometry">
                        <mxPoint x="560" y="610" as="sourcePoint"/>
                        <mxPoint x="810" y="610" as="targetPoint"/>
                        <Array as="points">
                            <mxPoint x="560" y="440"/>
                            <mxPoint x="810" y="440"/>
                        </Array>
                    </mxGeometry>
                </mxCell>
                <mxCell id="202" value="" style="endArrow=none;html=1;rounded=1;labelBackgroundColor=default;strokeColor=default;fontFamily=Helvetica;fontSize=11;fontColor=default;shape=connector;entryX=0;entryY=0.5;entryDx=0;entryDy=0;exitX=0.5;exitY=0;exitDx=0;exitDy=0;arcSize=50;" edge="1" parent="1" source="48" target="50">
                    <mxGeometry width="50" height="50" relative="1" as="geometry">
                        <mxPoint x="990" y="610" as="sourcePoint"/>
                        <mxPoint x="1040" y="560" as="targetPoint"/>
                        <Array as="points">
                            <mxPoint x="1070" y="440"/>
                        </Array>
                    </mxGeometry>
                </mxCell>
                <mxCell id="203" value="" style="endArrow=none;html=1;rounded=1;labelBackgroundColor=default;strokeColor=default;fontFamily=Helvetica;fontSize=11;fontColor=default;shape=connector;entryX=0;entryY=0.5;entryDx=0;entryDy=0;arcSize=50;" edge="1" parent="1" target="50">
                    <mxGeometry width="50" height="50" relative="1" as="geometry">
                        <mxPoint x="810" y="610" as="sourcePoint"/>
                        <mxPoint x="1040" y="560" as="targetPoint"/>
                        <Array as="points">
                            <mxPoint x="810" y="440"/>
                        </Array>
                    </mxGeometry>
                </mxCell>
                <mxCell id="206" value="" style="endArrow=none;html=1;rounded=1;labelBackgroundColor=default;strokeColor=default;fontFamily=Helvetica;fontSize=11;fontColor=default;shape=connector;exitX=0.5;exitY=1;exitDx=0;exitDy=0;arcSize=50;" edge="1" parent="1" source="21" target="204">
                    <mxGeometry width="50" height="50" relative="1" as="geometry">
                        <mxPoint x="560" y="270" as="sourcePoint"/>
                        <mxPoint x="810" y="610" as="targetPoint"/>
                        <Array as="points"/>
                    </mxGeometry>
                </mxCell>
                <mxCell id="204" value="Header" style="whiteSpace=wrap;html=1;fillColor=rgb(24, 20, 29);rounded=1;strokeColor=default;dashed=1;dashPattern=1 4;" vertex="1" parent="1">
                    <mxGeometry x="500" y="300" width="120" height="60" as="geometry"/>
                </mxCell>
                <mxCell id="209" value="" style="endArrow=none;html=1;rounded=1;labelBackgroundColor=default;strokeColor=default;fontFamily=Helvetica;fontSize=11;fontColor=default;shape=connector;exitX=0.5;exitY=0;exitDx=0;exitDy=0;arcSize=50;" edge="1" parent="1" source="63">
                    <mxGeometry width="50" height="50" relative="1" as="geometry">
                        <mxPoint x="1050" y="590" as="sourcePoint"/>
                        <mxPoint x="1831" y="610" as="targetPoint"/>
                        <Array as="points">
                            <mxPoint x="1450" y="540"/>
                            <mxPoint x="1640" y="540"/>
                            <mxPoint x="1831" y="540"/>
                        </Array>
                    </mxGeometry>
                </mxCell>
                <mxCell id="213" value="" style="endArrow=none;html=1;rounded=1;labelBackgroundColor=default;strokeColor=default;fontFamily=Helvetica;fontSize=11;fontColor=default;shape=connector;entryX=0.5;entryY=0;entryDx=0;entryDy=0;exitX=1;exitY=0.5;exitDx=0;exitDy=0;arcSize=50;" edge="1" parent="1" source="26" target="21">
                    <mxGeometry width="50" height="50" relative="1" as="geometry">
                        <mxPoint x="650" y="500" as="sourcePoint"/>
                        <mxPoint x="700" y="450" as="targetPoint"/>
                        <Array as="points">
                            <mxPoint x="560" y="120"/>
                        </Array>
                    </mxGeometry>
                </mxCell>
                <mxCell id="215" value="" style="edgeStyle=none;shape=connector;rounded=1;html=1;labelBackgroundColor=default;strokeColor=default;fontFamily=Helvetica;fontSize=11;fontColor=default;startArrow=none;startFill=0;endArrow=none;endFill=0;movable=1;resizable=1;rotatable=1;deletable=1;editable=1;connectable=1;arcSize=50;" edge="1" parent="1" source="105" target="126">
                    <mxGeometry relative="1" as="geometry">
                        <mxPoint x="80" y="1550" as="sourcePoint"/>
                        <mxPoint x="-110" y="1720" as="targetPoint"/>
                        <Array as="points">
                            <mxPoint x="80" y="1630"/>
                            <mxPoint x="-110" y="1630"/>
                        </Array>
                    </mxGeometry>
                </mxCell>
                <mxCell id="216" value="Principles" style="whiteSpace=wrap;html=1;fillColor=rgb(24, 20, 29);rounded=0;movable=1;resizable=1;rotatable=1;deletable=1;editable=1;connectable=1;glass=0;sketch=0;strokeColor=default;fontFamily=Helvetica;fontSize=11;fontColor=default;" vertex="1" parent="1">
                    <mxGeometry x="-360" y="1720" width="120" height="60" as="geometry"/>
                </mxCell>
                <mxCell id="218" value="Principles (short)" style="whiteSpace=wrap;html=1;fillColor=rgb(24, 20, 29);rounded=1;" vertex="1" parent="1">
                    <mxGeometry x="260" y="300" width="120" height="60" as="geometry"/>
                </mxCell>
                <mxCell id="221" value="h" style="endArrow=none;html=1;rounded=1;labelBackgroundColor=default;strokeColor=default;fontFamily=Helvetica;fontSize=11;fontColor=default;shape=connector;exitX=0.5;exitY=0;exitDx=0;exitDy=0;entryX=0;entryY=0.5;entryDx=0;entryDy=0;dashed=1;dashPattern=1 4;" edge="1" parent="1" source="216" target="218">
                    <mxGeometry width="50" height="50" relative="1" as="geometry">
                        <mxPoint x="380" y="1140" as="sourcePoint"/>
                        <mxPoint x="160" y="-60" as="targetPoint"/>
                        <Array as="points">
                            <mxPoint x="-300" y="330"/>
                        </Array>
                    </mxGeometry>
                </mxCell>
            </root>
        </mxGraphModel>
    </diagram>
</mxfile>